<svg width="139" height="39" viewBox="0 0 139 39" fill="none" xmlns="http://www.w3.org/2000/svg">
<path d="M119.5 0C130.27 0 139 8.73045 139 19.5C139 30.2696 130.27 39 119.5 39H19.5C8.73045 39 0 30.2696 0 19.5C0 8.73045 8.73045 1.53011e-07 19.5 0H119.5ZM34.2871 13.6855V27.0215H42.7715L47.4336 23.3877V19.293H44.8506L47.4336 17.2979V13.6855H34.2871ZM52.748 13.6855L48.0645 17.2979V27.0215H57.0947L61.7568 23.3877V13.6855H52.748ZM62.375 13.6855V27.0215H70.8594L75.5215 23.3877V13.6855H70.8594V23.3877H67.0576V13.6855H62.375ZM92.6318 13.6855V27.0215H101.116L105.778 23.3877V13.6855H101.116V23.3877H97.3154V13.6855H92.6318ZM111.051 13.6855L106.409 17.2773V22.0654H114.894V23.3877H106.409V27.0215H114.894L119.556 23.3877V18.6211H111.093V17.2979H119.556V13.6855H111.051ZM20.5107 13.6855V27H25.1934V22.2539H28.9941V27H33.6562V13.6855H20.5107ZM76.1523 13.6855V17.2979H80.1846V27H84.8467V17.2979H88.8574V13.6855H76.1523ZM42.7715 22.0654V23.3877H38.9707V22.0654H42.7715ZM57.0947 17.2979V23.3877H52.748V17.2979H57.0947ZM28.9941 17.2979V18.6211H25.1934V17.2979H28.9941ZM42.7715 17.2979V18.6211H38.9707V17.2979H42.7715Z" fill="#D9D9D9"/>
</svg>
