<svg width="308" height="84" viewBox="0 0 308 84" fill="none" xmlns="http://www.w3.org/2000/svg">
<rect width="308" height="84" rx="42" fill="#D9D9D9"/>
<path d="M29.512 32.444H50.796V54H43.248V46.316H37.094V54H29.512V32.444ZM43.248 40.434V38.292H37.094V40.434H43.248ZM68.6139 32.444H76.1619V48.152L68.6139 54.034H62.4599L54.8779 48.152V32.444H62.4599V48.152H68.6139V32.444ZM80.2437 32.444H101.528V54H93.9797V46.316H87.8257V54H80.2437V32.444ZM93.9797 40.434V38.292H87.8257V40.434H93.9797ZM113.192 54.034H105.61V32.444H113.192V54.034ZM124.811 48.152H134.297V54.034H117.229V32.444H124.811V48.152ZM138.345 32.444H159.629V54H152.081V46.316H145.927V54H138.345V32.444ZM152.081 40.434V38.292H145.927V40.434H152.081ZM184.995 32.444V38.292L180.813 41.522H184.995V48.152L177.447 54.034H163.711V32.444H184.995ZM177.447 48.152V46.01H171.293V48.152H177.447ZM177.447 40.434V38.292H171.293V40.434H177.447ZM196.659 54.034H189.077V32.444H196.659V54.034ZM208.279 48.152H217.765V54.034H200.697V32.444H208.279V48.152ZM229.395 54.034H221.813V32.444H229.395V54.034ZM233.432 32.444H254.002V38.292H247.508V54H239.96V38.292H233.432V32.444ZM271.906 32.444H279.454V48.152L271.906 54.034H258.17V48.152H271.906V46.01H258.17L258.068 32.444H265.65L265.718 40.128H271.906V32.444Z" fill="#262525"/>
</svg>
