<svg width="410" height="84" viewBox="0 0 410 84" fill="none" xmlns="http://www.w3.org/2000/svg">
<rect width="410" height="84" rx="42" fill="#D9D9D9"/>
<path d="M27.5325 31.444H48.8165V39.434L41.2685 45.316H35.1145V53.034H27.5325V31.444ZM41.2685 39.434V37.292H35.1145V39.434H41.2685ZM73.8423 31.444V38.992L69.9663 42.222H73.8423V53.034H66.2943V45.316H60.1403V53.034H52.5583V31.444H73.8423ZM66.2943 39.434V37.292H60.1403V39.434H66.2943ZM85.1662 53.034H77.5842V31.444H85.1662V53.034ZM108.414 37.258H96.4459V47.118H108.414V53H88.8979L88.8639 53.034V37.258L96.4459 31.41H108.414V37.258ZM131.68 37.292H119.712V39.434H131.68V45.01H119.712V47.152H131.68V53.034H112.13V31.444H131.68V37.292ZM162.773 37.258H150.805V47.118H162.773V53H143.257L143.223 53.034V37.258L150.805 31.41H162.773V37.258ZM174.071 31.444H188.657V47.152L181.109 53.034H166.489V37.292L174.071 31.444ZM181.109 47.152V37.292H174.071V47.152H181.109ZM212.37 31.444H221.142V53.034H213.594V37.292H210.534V53.034H202.986V37.292H199.96V53.034H192.378V37.292L199.96 31.444H207.78V35.014L212.37 31.444ZM224.841 31.444H246.125V39.434L238.577 45.316H232.423V53.034H224.841V31.444ZM238.577 39.434V37.292H232.423V39.434H238.577ZM249.867 31.444H271.151V53H263.603V45.316H257.449V53H249.867V31.444ZM263.603 39.434V37.292H257.449V39.434H263.603ZM296.177 31.444V38.992L292.301 42.222H296.177V53.034H288.629V45.316H282.475V53.034H274.893V31.444H296.177ZM288.629 39.434V37.292H282.475V39.434H288.629ZM307.501 53.034H299.919V31.444H307.501V53.034ZM332.483 37.292H318.781V39.434H332.483V47.152L324.935 53.034H311.199V47.152H324.935V45.01H311.199V37.258L318.713 31.444H332.483V37.292ZM343.807 31.444H358.393V47.152L350.845 53.034H336.225V37.292L343.807 31.444ZM350.845 47.152V37.292H343.807V47.152H350.845ZM369.696 31.444H383.398V53.034H375.85V37.292H369.696V53.034H362.114V37.292L369.696 31.444Z" fill="#262525"/>
</svg>
