<svg width="351" height="81" viewBox="0 0 351 81" fill="none" xmlns="http://www.w3.org/2000/svg">
<rect width="351" height="81" rx="40.5" fill="url(#paint0_linear_23_13)"/>
<path d="M57.8704 31.7439H64.7524V51.4289H57.8704V44.3919H52.2594V51.4289H45.3464V31.7439H52.2594V39.0289H57.8704V31.7439ZM78.2081 31.7439H85.0901V46.0659L78.2081 51.4289H65.6841V31.7439H72.5971V46.0659H78.2081V31.7439ZM92.9348 31.7439H105.428V51.4289H98.5458V37.0759H92.9348V51.4289H86.0218V37.0759L92.9348 31.7439ZM106.36 31.7439H125.115V37.0759H119.194V51.3979H112.312V37.0759H106.36V31.7439ZM148.512 37.0759H137.6V39.0289H148.512V44.1129H137.6V51.4289H130.687V31.7439H148.512V37.0759ZM156.333 31.7439H169.632V46.0659L162.75 51.4289H149.42V37.0759L156.333 31.7439ZM162.75 46.0659V37.0759H156.333V46.0659H162.75ZM189.951 31.7439V38.6259L186.417 41.5709H189.951V51.4289H183.069V44.3919H177.458V51.4289H170.545V31.7439H189.951ZM183.069 39.0289V37.0759H177.458V39.0289H183.069ZM195.57 31.7439H214.945V46.0659L208.063 51.4289H195.539V31.7129L195.57 31.7439ZM208.063 46.0659V37.0759H202.452V46.0659H208.063ZM233.702 37.0759H222.79V39.0289H233.702V44.1129H222.79V46.0659H233.702V51.4289H215.877V31.7439H233.702V37.0759ZM234.61 31.7439H254.016V51.3979H247.134V44.3919H241.523V51.3979H234.61V31.7439ZM247.134 39.0289V37.0759H241.523V39.0289H247.134ZM261.861 46.0659H270.51V51.4289H254.948V31.7439H261.861V46.0659ZM290.816 37.0759H278.323V39.0289H290.816V46.0659L283.934 51.4289H271.41V46.0659H283.934V44.1129H271.41V37.0449L278.261 31.7439H290.816V37.0759ZM298.785 30.3179V38.3469L291.903 43.5549V30.3179H298.785ZM298.94 51.3979H291.748V44.7949H298.94V51.3979Z" fill="#474545"/>
<defs>
<linearGradient id="paint0_linear_23_13" x1="0" y1="40.5" x2="351" y2="40.5" gradientUnits="userSpaceOnUse">
<stop stop-color="#D9D9D9"/>
<stop offset="0.4375" stop-color="#A3A3A3"/>
<stop offset="0.971154" stop-color="#737373"/>
</linearGradient>
</defs>
</svg>
