<svg width="203" height="280" viewBox="0 0 203 280" fill="none" xmlns="http://www.w3.org/2000/svg">
<path d="M57.7654 268.855V266.503H64.1914V266.671C64.1914 269.177 63.5054 271.109 62.1334 272.467C60.9014 273.699 59.2424 274.315 57.1564 274.315C55.0284 274.315 53.3344 273.685 52.0744 272.425C50.6884 271.039 49.9954 269.24 49.9954 267.028C49.9954 264.928 50.6814 263.192 52.0534 261.82C53.4534 260.392 55.2944 259.678 57.5764 259.678C58.8084 259.678 59.8864 259.923 60.8104 260.413C61.8884 260.959 62.7634 261.813 63.4354 262.975L61.0624 264.256C60.6844 263.528 60.1384 262.975 59.4244 262.597C58.8364 262.303 58.1784 262.156 57.4504 262.156C56.1344 262.156 55.0564 262.569 54.2164 263.395C53.2784 264.305 52.8094 265.537 52.8094 267.091C52.8094 268.561 53.2714 269.744 54.1954 270.64C55.0214 271.438 56.0574 271.837 57.3034 271.837C58.3954 271.837 59.3124 271.557 60.0544 270.997C60.7264 270.479 61.1674 269.765 61.3774 268.855H57.7654ZM74.3485 266.083V264.907H76.9105V274H74.3485V272.824C73.6625 273.804 72.7315 274.294 71.5555 274.294C70.1835 274.294 69.0635 273.825 68.1955 272.887C67.3415 271.949 66.9145 270.801 66.9145 269.443C66.9145 268.071 67.3345 266.923 68.1745 265.999C69.0145 265.075 70.0995 264.613 71.4295 264.613C72.7455 264.613 73.7185 265.103 74.3485 266.083ZM73.8865 267.616C73.4105 267.126 72.8085 266.881 72.0805 266.881C71.3525 266.881 70.7505 267.126 70.2745 267.616C69.7985 268.106 69.5605 268.715 69.5605 269.443C69.5605 270.171 69.7985 270.787 70.2745 271.291C70.7505 271.781 71.3525 272.026 72.0805 272.026C72.8085 272.026 73.4105 271.781 73.8865 271.291C74.3625 270.787 74.6005 270.171 74.6005 269.443C74.6005 268.715 74.3625 268.106 73.8865 267.616ZM80.4031 274V264.907H82.9651V265.936C83.6651 265.054 84.5681 264.613 85.6741 264.613C87.0321 264.613 87.9911 265.166 88.5511 266.272C89.2371 265.166 90.2101 264.613 91.4701 264.613C92.5341 264.613 93.3531 264.984 93.9271 265.726C94.1931 266.076 94.3611 266.44 94.4311 266.818C94.5151 267.196 94.5571 267.686 94.5571 268.288V274H91.9951V269.044C91.9951 268.19 91.8551 267.595 91.5751 267.259C91.3231 266.951 90.9731 266.797 90.5251 266.797C89.8811 266.797 89.4121 267.063 89.1181 267.595C88.8801 267.987 88.7611 268.575 88.7611 269.359V274H86.1991V269.044C86.1991 268.19 86.0591 267.595 85.7791 267.259C85.5271 266.951 85.1771 266.797 84.7291 266.797C84.0851 266.797 83.6161 267.063 83.3221 267.595C83.0841 267.987 82.9651 268.575 82.9651 269.359V274H80.4031ZM104.617 271.081L106.969 271.459C106.871 271.711 106.738 271.963 106.57 272.215C106.416 272.453 106.171 272.754 105.835 273.118C105.499 273.468 105.044 273.755 104.47 273.979C103.896 274.189 103.238 274.294 102.496 274.294C101.068 274.294 99.9059 273.867 99.0099 273.013C98.0579 272.117 97.5819 270.934 97.5819 269.464C97.5819 268.008 98.0439 266.818 98.9679 265.894C99.8359 265.04 100.977 264.613 102.391 264.613C103.931 264.613 105.114 265.11 105.94 266.104C106.668 266.972 107.032 268.162 107.032 269.674V269.884H100.228C100.228 270.5 100.375 271.011 100.669 271.417C101.089 271.991 101.698 272.278 102.496 272.278C103.448 272.278 104.155 271.879 104.617 271.081ZM100.312 268.246H104.617C104.519 267.658 104.26 267.21 103.84 266.902C103.434 266.58 102.972 266.419 102.454 266.419C101.95 266.419 101.488 266.58 101.068 266.902C100.662 267.224 100.41 267.672 100.312 268.246ZM123.955 262.345H120.805V274H118.075V262.345H114.925V259.993H123.955V262.345ZM126.357 264.907H128.919V274H126.357V264.907ZM126.546 262.156C126.252 261.848 126.105 261.484 126.105 261.064C126.105 260.644 126.252 260.287 126.546 259.993C126.854 259.685 127.218 259.531 127.638 259.531C128.058 259.531 128.415 259.685 128.709 259.993C129.017 260.287 129.171 260.644 129.171 261.064C129.171 261.484 129.017 261.848 128.709 262.156C128.415 262.45 128.058 262.597 127.638 262.597C127.218 262.597 126.854 262.45 126.546 262.156ZM136.737 267.091H134.973V274H132.411V267.091H131.403V264.907H132.411V261.799H134.973V264.907H136.737V267.091ZM139.121 258.691H141.683V274H139.121V258.691ZM151.748 271.081L154.1 271.459C154.002 271.711 153.869 271.963 153.701 272.215C153.547 272.453 153.302 272.754 152.966 273.118C152.63 273.468 152.175 273.755 151.601 273.979C151.027 274.189 150.369 274.294 149.627 274.294C148.199 274.294 147.037 273.867 146.141 273.013C145.189 272.117 144.713 270.934 144.713 269.464C144.713 268.008 145.175 266.818 146.099 265.894C146.967 265.04 148.108 264.613 149.522 264.613C151.062 264.613 152.245 265.11 153.071 266.104C153.799 266.972 154.163 268.162 154.163 269.674V269.884H147.359C147.359 270.5 147.506 271.011 147.8 271.417C148.22 271.991 148.829 272.278 149.627 272.278C150.579 272.278 151.286 271.879 151.748 271.081ZM147.443 268.246H151.748C151.65 267.658 151.391 267.21 150.971 266.902C150.565 266.58 150.103 266.419 149.585 266.419C149.081 266.419 148.619 266.58 148.199 266.902C147.793 267.224 147.541 267.672 147.443 268.246Z" fill="#D9D9D9"/>
<rect width="203" height="253" rx="37" fill="#D9D9D9"/>
</svg>
