<svg width="1189" height="90" viewBox="0 0 1189 90" fill="none" xmlns="http://www.w3.org/2000/svg">
<mask id="path-1-outside-1_23_5" maskUnits="userSpaceOnUse" x="-0.355392" y="-0.274994" width="1189" height="90" fill="black">
<rect fill="white" x="-0.355392" y="-0.274994" width="1189" height="90"/>
<path d="M85.51 24.355H31.105V63.505H55.54V54.865H40.42V32.86H85.51V63.505L55.54 86.86H1V1.13501H85.51V24.355ZM142.241 22.691H205.467V86.725H183.045V63.899H164.764V86.725H142.241V22.691ZM183.045 46.426V40.063H164.764V46.426H183.045ZM341.621 22.691H367.679V86.826H345.257V40.063H336.167V86.826H313.745V40.063H304.756V86.826H282.233V40.063L304.756 22.691H327.986V33.296L341.621 22.691ZM502.393 40.063H466.841V46.426H502.393V62.99H466.841V69.353H502.393V86.826H444.318V22.691H502.393V40.063ZM658.033 24.22H610.513V63.37H658.033V86.725H580.543L580.408 86.86V24.22L610.513 0.999999H658.033V24.22ZM755.466 22.691H777.888V86.826H755.466V63.899H737.185V86.826H714.662V22.691H737.185V46.426H755.466V22.691ZM912.729 40.063H877.177V46.426H912.729V62.99H877.177V69.353H912.729V86.826H854.654V22.691H912.729V40.063ZM1047.49 39.962H1011.94V69.252H1047.49V86.725H989.519L989.418 86.826V39.962L1011.94 22.59H1047.49V39.962ZM1187.41 22.691V46.426L1176.8 54.708L1187.41 62.99V86.826H1164.99V63.899H1146.7V86.826H1124.18V22.691H1146.7V46.426H1164.99V22.691H1187.41Z"/>
</mask>
<path d="M85.51 24.355H31.105V63.505H55.54V54.865H40.42V32.86H85.51V63.505L55.54 86.86H1V1.13501H85.51V24.355ZM142.241 22.691H205.467V86.725H183.045V63.899H164.764V86.725H142.241V22.691ZM183.045 46.426V40.063H164.764V46.426H183.045ZM341.621 22.691H367.679V86.826H345.257V40.063H336.167V86.826H313.745V40.063H304.756V86.826H282.233V40.063L304.756 22.691H327.986V33.296L341.621 22.691ZM502.393 40.063H466.841V46.426H502.393V62.99H466.841V69.353H502.393V86.826H444.318V22.691H502.393V40.063ZM658.033 24.22H610.513V63.37H658.033V86.725H580.543L580.408 86.86V24.22L610.513 0.999999H658.033V24.22ZM755.466 22.691H777.888V86.826H755.466V63.899H737.185V86.826H714.662V22.691H737.185V46.426H755.466V22.691ZM912.729 40.063H877.177V46.426H912.729V62.99H877.177V69.353H912.729V86.826H854.654V22.691H912.729V40.063ZM1047.49 39.962H1011.94V69.252H1047.49V86.725H989.519L989.418 86.826V39.962L1011.94 22.59H1047.49V39.962ZM1187.41 22.691V46.426L1176.8 54.708L1187.41 62.99V86.826H1164.99V63.899H1146.7V86.826H1124.18V22.691H1146.7V46.426H1164.99V22.691H1187.41Z" fill="white"/>
<path d="M85.51 24.355V25.355H86.51V24.355H85.51ZM31.105 24.355V23.355H30.105V24.355H31.105ZM31.105 63.505H30.105V64.505H31.105V63.505ZM55.54 63.505V64.505H56.54V63.505H55.54ZM55.54 54.865H56.54V53.865H55.54V54.865ZM40.42 54.865H39.42V55.865H40.42V54.865ZM40.42 32.86V31.86H39.42V32.86H40.42ZM85.51 32.86H86.51V31.86H85.51V32.86ZM85.51 63.505L86.1247 64.2938L86.51 63.9935V63.505H85.51ZM55.54 86.86V87.86H55.8836L56.1547 87.6488L55.54 86.86ZM1 86.86H9.53674e-07V87.86H1V86.86ZM1 1.135V0.135002H9.53674e-07V1.135H1ZM85.51 1.135H86.51V0.135002H85.51V1.135ZM85.51 24.355V23.355H31.105V24.355V25.355H85.51V24.355ZM31.105 24.355H30.105V63.505H31.105H32.105V24.355H31.105ZM31.105 63.505V64.505H55.54V63.505V62.505H31.105V63.505ZM55.54 63.505H56.54V54.865H55.54H54.54V63.505H55.54ZM55.54 54.865V53.865H40.42V54.865V55.865H55.54V54.865ZM40.42 54.865H41.42V32.86H40.42H39.42V54.865H40.42ZM40.42 32.86V33.86H85.51V32.86V31.86H40.42V32.86ZM85.51 32.86H84.51V63.505H85.51H86.51V32.86H85.51ZM85.51 63.505L84.8953 62.7162L54.9253 86.0712L55.54 86.86L56.1547 87.6488L86.1247 64.2938L85.51 63.505ZM55.54 86.86V85.86H1V86.86V87.86H55.54V86.86ZM1 86.86H2V1.135H1H9.53674e-07V86.86H1ZM1 1.135V2.135H85.51V1.135V0.135002H1V1.135ZM85.51 1.135H84.51V24.355H85.51H86.51V1.135H85.51ZM142.241 22.691V21.691H141.241V22.691H142.241ZM205.467 22.691H206.467V21.691H205.467V22.691ZM205.467 86.725V87.725H206.467V86.725H205.467ZM183.045 86.725H182.045V87.725H183.045V86.725ZM183.045 63.899H184.045V62.899H183.045V63.899ZM164.764 63.899V62.899H163.764V63.899H164.764ZM164.764 86.725V87.725H165.764V86.725H164.764ZM142.241 86.725H141.241V87.725H142.241V86.725ZM183.045 46.426V47.426H184.045V46.426H183.045ZM183.045 40.063H184.045V39.063H183.045V40.063ZM164.764 40.063V39.063H163.764V40.063H164.764ZM164.764 46.426H163.764V47.426H164.764V46.426ZM142.241 22.691V23.691H205.467V22.691V21.691H142.241V22.691ZM205.467 22.691H204.467V86.725H205.467H206.467V22.691H205.467ZM205.467 86.725V85.725H183.045V86.725V87.725H205.467V86.725ZM183.045 86.725H184.045V63.899H183.045H182.045V86.725H183.045ZM183.045 63.899V62.899H164.764V63.899V64.899H183.045V63.899ZM164.764 63.899H163.764V86.725H164.764H165.764V63.899H164.764ZM164.764 86.725V85.725H142.241V86.725V87.725H164.764V86.725ZM142.241 86.725H143.241V22.691H142.241H141.241V86.725H142.241ZM183.045 46.426H184.045V40.063H183.045H182.045V46.426H183.045ZM183.045 40.063V39.063H164.764V40.063V41.063H183.045V40.063ZM164.764 40.063H163.764V46.426H164.764H165.764V40.063H164.764ZM164.764 46.426V47.426H183.045V46.426V45.426H164.764V46.426ZM341.621 22.691V21.691H341.278L341.007 21.9017L341.621 22.691ZM367.679 22.691H368.679V21.691H367.679V22.691ZM367.679 86.826V87.826H368.679V86.826H367.679ZM345.257 86.826H344.257V87.826H345.257V86.826ZM345.257 40.063H346.257V39.063H345.257V40.063ZM336.167 40.063V39.063H335.167V40.063H336.167ZM336.167 86.826V87.826H337.167V86.826H336.167ZM313.745 86.826H312.745V87.826H313.745V86.826ZM313.745 40.063H314.745V39.063H313.745V40.063ZM304.756 40.063V39.063H303.756V40.063H304.756ZM304.756 86.826V87.826H305.756V86.826H304.756ZM282.233 86.826H281.233V87.826H282.233V86.826ZM282.233 40.063L281.622 39.2712L281.233 39.5714V40.063H282.233ZM304.756 22.691V21.691H304.415L304.145 21.8992L304.756 22.691ZM327.986 22.691H328.986V21.691H327.986V22.691ZM327.986 33.296H326.986V35.3406L328.6 34.0854L327.986 33.296ZM341.621 22.691V23.691H367.679V22.691V21.691H341.621V22.691ZM367.679 22.691H366.679V86.826H367.679H368.679V22.691H367.679ZM367.679 86.826V85.826H345.257V86.826V87.826H367.679V86.826ZM345.257 86.826H346.257V40.063H345.257H344.257V86.826H345.257ZM345.257 40.063V39.063H336.167V40.063V41.063H345.257V40.063ZM336.167 40.063H335.167V86.826H336.167H337.167V40.063H336.167ZM336.167 86.826V85.826H313.745V86.826V87.826H336.167V86.826ZM313.745 86.826H314.745V40.063H313.745H312.745V86.826H313.745ZM313.745 40.063V39.063H304.756V40.063V41.063H313.745V40.063ZM304.756 40.063H303.756V86.826H304.756H305.756V40.063H304.756ZM304.756 86.826V85.826H282.233V86.826V87.826H304.756V86.826ZM282.233 86.826H283.233V40.063H282.233H281.233V86.826H282.233ZM282.233 40.063L282.844 40.8548L305.367 23.4828L304.756 22.691L304.145 21.8992L281.622 39.2712L282.233 40.063ZM304.756 22.691V23.691H327.986V22.691V21.691H304.756V22.691ZM327.986 22.691H326.986V33.296H327.986H328.986V22.691H327.986ZM327.986 33.296L328.6 34.0854L342.235 23.4804L341.621 22.691L341.007 21.9017L327.372 32.5067L327.986 33.296ZM502.393 40.063V41.063H503.393V40.063H502.393ZM466.841 40.063V39.063H465.841V40.063H466.841ZM466.841 46.426H465.841V47.426H466.841V46.426ZM502.393 46.426H503.393V45.426H502.393V46.426ZM502.393 62.99V63.99H503.393V62.99H502.393ZM466.841 62.99V61.99H465.841V62.99H466.841ZM466.841 69.353H465.841V70.353H466.841V69.353ZM502.393 69.353H503.393V68.353H502.393V69.353ZM502.393 86.826V87.826H503.393V86.826H502.393ZM444.318 86.826H443.318V87.826H444.318V86.826ZM444.318 22.691V21.691H443.318V22.691H444.318ZM502.393 22.691H503.393V21.691H502.393V22.691ZM502.393 40.063V39.063H466.841V40.063V41.063H502.393V40.063ZM466.841 40.063H465.841V46.426H466.841H467.841V40.063H466.841ZM466.841 46.426V47.426H502.393V46.426V45.426H466.841V46.426ZM502.393 46.426H501.393V62.99H502.393H503.393V46.426H502.393ZM502.393 62.99V61.99H466.841V62.99V63.99H502.393V62.99ZM466.841 62.99H465.841V69.353H466.841H467.841V62.99H466.841ZM466.841 69.353V70.353H502.393V69.353V68.353H466.841V69.353ZM502.393 69.353H501.393V86.826H502.393H503.393V69.353H502.393ZM502.393 86.826V85.826H444.318V86.826V87.826H502.393V86.826ZM444.318 86.826H445.318V22.691H444.318H443.318V86.826H444.318ZM444.318 22.691V23.691H502.393V22.691V21.691H444.318V22.691ZM502.393 22.691H501.393V40.063H502.393H503.393V22.691H502.393ZM658.033 24.22V25.22H659.033V24.22H658.033ZM610.513 24.22V23.22H609.513V24.22H610.513ZM610.513 63.37H609.513V64.37H610.513V63.37ZM658.033 63.37H659.033V62.37H658.033V63.37ZM658.033 86.725V87.725H659.033V86.725H658.033ZM580.543 86.725V85.725H580.129L579.836 86.0179L580.543 86.725ZM580.408 86.86H579.408V89.2742L581.115 87.5671L580.408 86.86ZM580.408 24.22L579.797 23.4282L579.408 23.7284V24.22H580.408ZM610.513 1V0H610.172L609.902 0.208168L610.513 1ZM658.033 1H659.033V0H658.033V1ZM658.033 24.22V23.22H610.513V24.22V25.22H658.033V24.22ZM610.513 24.22H609.513V63.37H610.513H611.513V24.22H610.513ZM610.513 63.37V64.37H658.033V63.37V62.37H610.513V63.37ZM658.033 63.37H657.033V86.725H658.033H659.033V63.37H658.033ZM658.033 86.725V85.725H580.543V86.725V87.725H658.033V86.725ZM580.543 86.725L579.836 86.0179L579.701 86.1529L580.408 86.86L581.115 87.5671L581.25 87.4321L580.543 86.725ZM580.408 86.86H581.408V24.22H580.408H579.408V86.86H580.408ZM580.408 24.22L581.019 25.0118L611.124 1.79183L610.513 1L609.902 0.208168L579.797 23.4282L580.408 24.22ZM610.513 1V2H658.033V1V0H610.513V1ZM658.033 1H657.033V24.22H658.033H659.033V1H658.033ZM755.466 22.691V21.691H754.466V22.691H755.466ZM777.888 22.691H778.888V21.691H777.888V22.691ZM777.888 86.826V87.826H778.888V86.826H777.888ZM755.466 86.826H754.466V87.826H755.466V86.826ZM755.466 63.899H756.466V62.899H755.466V63.899ZM737.185 63.899V62.899H736.185V63.899H737.185ZM737.185 86.826V87.826H738.185V86.826H737.185ZM714.662 86.826H713.662V87.826H714.662V86.826ZM714.662 22.691V21.691H713.662V22.691H714.662ZM737.185 22.691H738.185V21.691H737.185V22.691ZM737.185 46.426H736.185V47.426H737.185V46.426ZM755.466 46.426V47.426H756.466V46.426H755.466ZM755.466 22.691V23.691H777.888V22.691V21.691H755.466V22.691ZM777.888 22.691H776.888V86.826H777.888H778.888V22.691H777.888ZM777.888 86.826V85.826H755.466V86.826V87.826H777.888V86.826ZM755.466 86.826H756.466V63.899H755.466H754.466V86.826H755.466ZM755.466 63.899V62.899H737.185V63.899V64.899H755.466V63.899ZM737.185 63.899H736.185V86.826H737.185H738.185V63.899H737.185ZM737.185 86.826V85.826H714.662V86.826V87.826H737.185V86.826ZM714.662 86.826H715.662V22.691H714.662H713.662V86.826H714.662ZM714.662 22.691V23.691H737.185V22.691V21.691H714.662V22.691ZM737.185 22.691H736.185V46.426H737.185H738.185V22.691H737.185ZM737.185 46.426V47.426H755.466V46.426V45.426H737.185V46.426ZM755.466 46.426H756.466V22.691H755.466H754.466V46.426H755.466ZM912.729 40.063V41.063H913.729V40.063H912.729ZM877.177 40.063V39.063H876.177V40.063H877.177ZM877.177 46.426H876.177V47.426H877.177V46.426ZM912.729 46.426H913.729V45.426H912.729V46.426ZM912.729 62.99V63.99H913.729V62.99H912.729ZM877.177 62.99V61.99H876.177V62.99H877.177ZM877.177 69.353H876.177V70.353H877.177V69.353ZM912.729 69.353H913.729V68.353H912.729V69.353ZM912.729 86.826V87.826H913.729V86.826H912.729ZM854.654 86.826H853.654V87.826H854.654V86.826ZM854.654 22.691V21.691H853.654V22.691H854.654ZM912.729 22.691H913.729V21.691H912.729V22.691ZM912.729 40.063V39.063H877.177V40.063V41.063H912.729V40.063ZM877.177 40.063H876.177V46.426H877.177H878.177V40.063H877.177ZM877.177 46.426V47.426H912.729V46.426V45.426H877.177V46.426ZM912.729 46.426H911.729V62.99H912.729H913.729V46.426H912.729ZM912.729 62.99V61.99H877.177V62.99V63.99H912.729V62.99ZM877.177 62.99H876.177V69.353H877.177H878.177V62.99H877.177ZM877.177 69.353V70.353H912.729V69.353V68.353H877.177V69.353ZM912.729 69.353H911.729V86.826H912.729H913.729V69.353H912.729ZM912.729 86.826V85.826H854.654V86.826V87.826H912.729V86.826ZM854.654 86.826H855.654V22.691H854.654H853.654V86.826H854.654ZM854.654 22.691V23.691H912.729V22.691V21.691H854.654V22.691ZM912.729 22.691H911.729V40.063H912.729H913.729V22.691H912.729ZM1047.49 39.962V40.962H1048.49V39.962H1047.49ZM1011.94 39.962V38.962H1010.94V39.962H1011.94ZM1011.94 69.252H1010.94V70.252H1011.94V69.252ZM1047.49 69.252H1048.49V68.252H1047.49V69.252ZM1047.49 86.725V87.725H1048.49V86.725H1047.49ZM989.519 86.725V85.725H989.105L988.812 86.0179L989.519 86.725ZM989.418 86.826H988.418V89.2402L990.125 87.5331L989.418 86.826ZM989.418 39.962L988.807 39.1702L988.418 39.4704V39.962H989.418ZM1011.94 22.59V21.59H1011.6L1011.33 21.7982L1011.94 22.59ZM1047.49 22.59H1048.49V21.59H1047.49V22.59ZM1047.49 39.962V38.962H1011.94V39.962V40.962H1047.49V39.962ZM1011.94 39.962H1010.94V69.252H1011.94H1012.94V39.962H1011.94ZM1011.94 69.252V70.252H1047.49V69.252V68.252H1011.94V69.252ZM1047.49 69.252H1046.49V86.725H1047.49H1048.49V69.252H1047.49ZM1047.49 86.725V85.725H989.519V86.725V87.725H1047.49V86.725ZM989.519 86.725L988.812 86.0179L988.711 86.1189L989.418 86.826L990.125 87.5331L990.226 87.4321L989.519 86.725ZM989.418 86.826H990.418V39.962H989.418H988.418V86.826H989.418ZM989.418 39.962L990.029 40.7538L1012.55 23.3818L1011.94 22.59L1011.33 21.7982L988.807 39.1702L989.418 39.962ZM1011.94 22.59V23.59H1047.49V22.59V21.59H1011.94V22.59ZM1047.49 22.59H1046.49V39.962H1047.49H1048.49V22.59H1047.49ZM1187.41 22.691H1188.41V21.691H1187.41V22.691ZM1187.41 46.426L1188.02 47.2141L1188.41 46.9139V46.426H1187.41ZM1176.8 54.708L1176.19 53.9199L1175.18 54.708L1176.19 55.4961L1176.8 54.708ZM1187.41 62.99H1188.41V62.5021L1188.02 62.2019L1187.41 62.99ZM1187.41 86.826V87.826H1188.41V86.826H1187.41ZM1164.99 86.826H1163.99V87.826H1164.99V86.826ZM1164.99 63.899H1165.99V62.899H1164.99V63.899ZM1146.7 63.899V62.899H1145.7V63.899H1146.7ZM1146.7 86.826V87.826H1147.7V86.826H1146.7ZM1124.18 86.826H1123.18V87.826H1124.18V86.826ZM1124.18 22.691V21.691H1123.18V22.691H1124.18ZM1146.7 22.691H1147.7V21.691H1146.7V22.691ZM1146.7 46.426H1145.7V47.426H1146.7V46.426ZM1164.99 46.426V47.426H1165.99V46.426H1164.99ZM1164.99 22.691V21.691H1163.99V22.691H1164.99ZM1187.41 22.691H1186.41V46.426H1187.41H1188.41V22.691H1187.41ZM1187.41 46.426L1186.79 45.6379L1176.19 53.9199L1176.8 54.708L1177.42 55.4961L1188.02 47.2141L1187.41 46.426ZM1176.8 54.708L1176.19 55.4961L1186.79 63.7781L1187.41 62.99L1188.02 62.2019L1177.42 53.9199L1176.8 54.708ZM1187.41 62.99H1186.41V86.826H1187.41H1188.41V62.99H1187.41ZM1187.41 86.826V85.826H1164.99V86.826V87.826H1187.41V86.826ZM1164.99 86.826H1165.99V63.899H1164.99H1163.99V86.826H1164.99ZM1164.99 63.899V62.899H1146.7V63.899V64.899H1164.99V63.899ZM1146.7 63.899H1145.7V86.826H1146.7H1147.7V63.899H1146.7ZM1146.7 86.826V85.826H1124.18V86.826V87.826H1146.7V86.826ZM1124.18 86.826H1125.18V22.691H1124.18H1123.18V86.826H1124.18ZM1124.18 22.691V23.691H1146.7V22.691V21.691H1124.18V22.691ZM1146.7 22.691H1145.7V46.426H1146.7H1147.7V22.691H1146.7ZM1146.7 46.426V47.426H1164.99V46.426V45.426H1146.7V46.426ZM1164.99 46.426H1165.99V22.691H1164.99H1163.99V46.426H1164.99ZM1164.99 22.691V23.691H1187.41V22.691V21.691H1164.99V22.691Z" fill="black" mask="url(#path-1-outside-1_23_5)"/>
</svg>
