<svg width="103" height="39" viewBox="0 0 103 39" fill="none" xmlns="http://www.w3.org/2000/svg">
<path d="M83.5 0C94.2696 0 103 8.73045 103 19.5C103 30.2696 94.2696 39 83.5 39H19.5C8.73045 39 0 30.2696 0 19.5C0 8.73045 8.73045 0 19.5 0H83.5ZM19.5264 13.418V28.0234H24.6553V22.8018H28.8184V28.0234H33.9238V13.418H28.8184V18.8232H24.6553V13.418H19.5264ZM39.9746 13.418L34.8457 17.374V28.0234H44.7354L49.8418 24.0439V13.418H39.9746ZM55.8779 13.418L50.749 17.374V28.0234H55.8779V17.374H57.9248V28.0234H63.0303V17.374H65.1006V28.0234H70.207V13.418H64.2725L61.168 15.833V13.418H55.8779ZM71.0996 13.418V28.0234H84.3242V24.0439H76.2285V22.5947H84.3242V18.8232H76.2285V17.374H84.3242V13.418H71.0996ZM44.7354 17.374V24.0439H39.9746V17.374H44.7354Z" fill="#D9D9D9"/>
</svg>
