<svg width="308" height="84" viewBox="0 0 308 84" fill="none" xmlns="http://www.w3.org/2000/svg">
<rect width="308" height="84" rx="42" fill="#D9D9D9"/>
<path d="M35.877 31.176H58.413V39.636L50.421 45.864H43.905V54.036H35.877V31.176ZM50.421 39.636V37.368H43.905V39.636H50.421ZM70.4029 47.808H80.4469V54.036H62.3749V31.176H70.4029V47.808ZM84.3729 31.176H106.909V54H98.9169V45.864H92.4009V54H84.3729V31.176ZM98.9169 39.636V37.368H92.4009V39.636H98.9169ZM110.871 31.176H132.651V37.368H125.775V54H117.783V37.368H110.871V31.176ZM157.295 37.368H144.623V39.636H157.295V45.54H144.623V54.036H136.595V31.176H157.295V37.368ZM169.258 31.176H184.702V47.808L176.71 54.036H161.23V37.368L169.258 31.176ZM176.71 47.808V37.368H169.258V47.808H176.71ZM211.178 31.176V39.168L207.074 42.588H211.178V54.036H203.186V45.864H196.67V54.036H188.642V31.176H211.178ZM203.186 39.636V37.368H196.67V39.636H203.186ZM236.308 31.176H245.596V54.036H237.604V37.368H234.364V54.036H226.372V37.368H223.168V54.036H215.14V37.368L223.168 31.176H231.448V34.956L236.308 31.176ZM272.049 37.368H257.541V39.636H272.049V47.808L264.057 54.036H249.513V47.808H264.057V45.54H249.513V37.332L257.469 31.176H272.049V37.368Z" fill="#262525"/>
</svg>
