<svg width="1136" height="75" viewBox="0 0 1136 75" fill="none" xmlns="http://www.w3.org/2000/svg">
<rect width="1136" height="75" rx="37.5" fill="#D9D9D9"/>
<path fill-rule="evenodd" clip-rule="evenodd" d="M1083.16 15C1093.19 15 1101.32 23.3103 1101.32 33.5615C1101.32 37.5213 1100.1 41.1906 1098.03 44.2041L1109.08 55.4898C1110.31 56.7504 1110.31 58.7939 1109.08 60.0545C1107.84 61.3152 1105.84 61.3152 1104.61 60.0545L1093.57 48.7688C1090.62 50.8817 1087.03 52.123 1083.16 52.123C1073.13 52.123 1065 43.8127 1065 33.5615C1065 23.3103 1073.13 15 1083.16 15ZM1083.16 19.8421C1075.75 19.8421 1069.74 25.9845 1069.74 33.5615C1069.74 41.1385 1075.75 47.2809 1083.16 47.2809C1090.57 47.2809 1096.58 41.1385 1096.58 33.5615C1096.58 25.9845 1090.57 19.8421 1083.16 19.8421Z" fill="#262525"/>
</svg>
