<svg width="250" height="124" viewBox="0 0 250 124" fill="none" xmlns="http://www.w3.org/2000/svg">
<path d="M63.7927 60.5377L54.9267 60.5377L54.9267 66.9177L58.9087 66.9177L58.9087 65.5097L56.4447 65.5097L56.4447 61.9237L63.7927 61.9237L63.7927 66.9177L58.9087 70.7237L50.0207 70.7237L50.0207 56.7537L63.7927 56.7537L63.7927 60.5377ZM72.3739 56.7537L86.1459 56.7537L86.1459 70.7017L81.2619 70.7017L81.2619 65.7297L77.2799 65.7297L77.2799 70.7017L72.3739 70.7017L72.3739 56.7537ZM81.2619 61.9237L81.2619 60.5377L77.2799 60.5377L77.2799 61.9237L81.2619 61.9237ZM107.663 56.7537L113.339 56.7537L113.339 70.7237L108.455 70.7237L108.455 60.5377L106.475 60.5377L106.475 70.7237L101.591 70.7237L101.591 60.5377L99.6331 60.5377L99.6331 70.7237L94.7271 70.7237L94.7271 60.5377L99.6331 56.7537L104.693 56.7537L104.693 59.0637L107.663 56.7537ZM134.543 60.5377L126.799 60.5377L126.799 61.9237L134.543 61.9237L134.543 65.5317L126.799 65.5317L126.799 66.9177L134.543 66.9177L134.543 70.7237L121.893 70.7237L121.893 56.7537L134.543 56.7537L134.543 60.5377ZM155.757 60.5157L148.013 60.5157L148.013 66.8957L155.757 66.8957L155.757 70.7017L143.129 70.7017L143.107 70.7237L143.107 60.5157L148.013 56.7317L155.757 56.7317L155.757 60.5157ZM173.21 56.7537L178.094 56.7537L178.094 70.7237L173.21 70.7237L173.21 65.7297L169.228 65.7297L169.228 70.7237L164.322 70.7237L164.322 56.7537L169.228 56.7537L169.228 61.9237L173.21 61.9237L173.21 56.7537ZM199.325 60.5377L191.581 60.5377L191.581 61.9237L199.325 61.9237L199.325 65.5317L191.581 65.5317L191.581 66.9177L199.325 66.9177L199.325 70.7237L186.675 70.7237L186.675 56.7537L199.325 56.7537L199.325 60.5377ZM220.54 60.5157L212.796 60.5157L212.796 66.8957L220.54 66.8957L220.54 70.7017L207.912 70.7017L207.89 70.7237L207.89 60.5157L212.796 56.7317L220.54 56.7317L220.54 60.5157ZM242.876 56.7537L242.876 61.9237L240.566 63.7277L242.876 65.5317L242.876 70.7237L237.992 70.7237L237.992 65.7297L234.01 65.7297L234.01 70.7237L229.104 70.7237L229.104 56.7537L234.01 56.7537L234.01 61.9237L237.992 61.9237L237.992 56.7537L242.876 56.7537Z" fill="white"/>
<path d="M34.4968 55.5355L34.4968 69.8685L20.1628 77.0345L5.82983 69.8685L5.82983 55.5355L20.1628 48.3685L34.4968 55.5355ZM20.0613 58.1966C17.2575 58.1967 14.9851 60.2345 14.9851 62.7474C14.9852 65.2602 17.2576 67.2971 20.0613 67.2972C22.8651 67.2972 25.1383 65.2603 25.1384 62.7474C25.1384 60.2344 22.8652 58.1966 20.0613 58.1966Z" fill="#D9D9D9"/>
</svg>
