<svg width="54" height="39" viewBox="0 0 54 39" fill="none" xmlns="http://www.w3.org/2000/svg">
<path d="M34.5 0C45.2694 0.000141606 54 8.73054 54 19.5C54 30.2695 45.2694 38.9999 34.5 39H19.5C8.73045 39 0 30.2696 0 19.5C0 8.73045 8.73045 1.28578e-07 19.5 0H34.5ZM26.8203 22.5889C25.2454 22.5889 23.0574 22.9117 21.2236 23.6602C20.3066 24.0345 19.4054 24.5443 18.7168 25.2383C18.0113 25.9493 17.4962 26.8935 17.4961 28.0596V29.2754C17.4961 30.9222 18.7728 32.3154 20.3887 32.3154H33.251C34.8669 32.3154 36.1436 30.9222 36.1436 29.2754V28.0596C36.1434 26.8935 35.6283 25.9493 34.9229 25.2383C34.2343 24.5444 33.333 24.0345 32.416 23.6602C30.5824 22.9118 28.3952 22.5889 26.8203 22.5889ZM26.8203 25.0205C28.1589 25.0206 30.0507 25.3057 31.5674 25.9248C32.3255 26.2343 32.918 26.5985 33.3037 26.9873C33.6722 27.3588 33.8124 27.7064 33.8125 28.0596V29.2754C33.8125 29.6183 33.5425 29.8838 33.251 29.8838H20.3887C20.0972 29.8838 19.8271 29.6183 19.8271 29.2754V28.0596C19.8272 27.7063 19.9682 27.3589 20.3369 26.9873C20.7227 26.5985 21.315 26.2343 22.0732 25.9248C23.5901 25.3057 25.4818 25.0205 26.8203 25.0205ZM20.958 19.8623C20.8018 19.2112 20.1692 18.8158 19.5449 18.9785C18.219 19.3243 16.8924 20.012 15.876 20.8955C14.896 21.7475 14 22.9689 14 24.4131V25.0205C14 25.6918 14.5216 26.2361 15.165 26.2363C15.8087 26.2363 16.3311 25.692 16.3311 25.0205V24.4131C16.3311 24.0338 16.6001 23.4304 17.3682 22.7627C18.0999 22.1266 19.1055 21.599 20.1104 21.3369C20.7345 21.1739 21.1141 20.5135 20.958 19.8623ZM34.0957 18.9785C33.4714 18.8157 32.8379 19.2111 32.6816 19.8623C32.5255 20.5137 32.9058 21.1741 33.5303 21.3369C34.535 21.599 35.5398 22.1267 36.2715 22.7627C37.0396 23.4304 37.3086 24.0338 37.3086 24.4131V25.0205C37.3086 25.692 37.831 26.2363 38.4746 26.2363C39.1182 26.2362 39.6396 25.6919 39.6396 25.0205V24.4131C39.6396 22.9688 38.7437 21.7475 37.7637 20.8955C36.7474 20.0121 35.4215 19.3244 34.0957 18.9785ZM26.8203 11.6475C24.2457 11.6475 22.1582 13.825 22.1582 16.5107C22.1584 19.1963 24.2458 21.373 26.8203 21.373C29.3946 21.3728 31.4812 19.1962 31.4814 16.5107C31.4814 13.8251 29.3948 11.6477 26.8203 11.6475ZM26.8203 14.0791C28.1074 14.0793 29.1504 15.168 29.1504 16.5107C29.1502 17.8533 28.1073 18.9412 26.8203 18.9414C25.5331 18.9414 24.4895 17.8534 24.4893 16.5107C24.4893 15.1679 25.533 14.0791 26.8203 14.0791ZM23.3232 8C20.7488 8.00019 18.6621 10.1776 18.6621 12.8633C18.6622 13.5346 19.1836 14.0791 19.8271 14.0791C20.4707 14.0791 20.993 13.5346 20.9932 12.8633C20.9932 11.5205 22.0361 10.4318 23.3232 10.4316C23.9669 10.4316 24.4892 9.88723 24.4893 9.21582C24.4893 8.54438 23.9669 8 23.3232 8ZM30.3164 8C29.6727 8 29.1504 8.54438 29.1504 9.21582C29.1504 9.88723 29.6728 10.4316 30.3164 10.4316C31.6037 10.4317 32.6475 11.5204 32.6475 12.8633C32.6476 13.5346 33.169 14.079 33.8125 14.0791C34.4561 14.0791 34.9784 13.5346 34.9785 12.8633C34.9785 10.1776 32.891 8.00008 30.3164 8Z" fill="#D9D9D9"/>
</svg>
